<svg xmlns="http://www.w3.org/2000/svg" width="151" height="28" viewBox="0 0 151 28"><path d="M67.8807 2.0954c-.126-.079-.2199-.121-.2866-.1273-.0062-.0012-.0123-.0012-.0185-.0012-.0346 0-.089.0099-.1668.0333-1.2403.8537-2.4102 1.1872-3.4689.9982-2.7202-.4916-9.5752-.6201-13.7112.3015-1.291.2878-1.6406.289-1.8728.2903-.0606 0-.1125 0-.1705.0061a1.3354 1.3354 0 0 1-.0704.0025c-.939 0-2.4374-1.2959-2.5165-1.417-.068-.116-.1013-.147-.205-.147-.0779 0-.136.0396-.2187.1483-.2742.5991-.3274.6819-.8252 1.4725a31.1816 31.1816 0 0 0-.5399.8537l-.005.0086.0087.0074c.9364.7524 1.1625 1.748 1.2095 5.3281-.005.2261.0074 3.291.0185 6.2534.0099 2.5164.0198 4.892.016 4.9513-.011.1705-.0197.3348-.0284.493-.063 1.2155-.1062 2.0185-.8338 2.4608-.1124.0692-.1816.121-.1853.2446-.0074.0519 0 .1149.011.1754l1.3528 2.01c.0568.0963.1544.2952.32.6485.0445.038.0706.035.1059.0554.0271.0169.0568.035.0807.0422.016.004.039.0284.0543.0284a.1814.1814 0 0 0 .0617-.0111c.0396-.0111.0964-.063.2039-.1853 1.1649-1.3639 1.8518-1.6591 4.2385-1.6591.1346 0 .2742.0012.42.0025h.0099c.1025 0 .667-.01 1.5047-.0247 3.1612-.0556 9.7358-.168 11.4406-.115.136.005.2903-.0012.4522-.0073.667-.0248 1.4861-.0569 2.037.5954.8562 1.0105 1.2972 1.1303 1.7518 1.1303.0247 0 .0494 0 .0741-.0012.9228-.0222 1.4306-1.2255 1.4306-3.3861 0-.304-.0136-1.102-.0321-2.2076-.0816-4.645-.2484-14.3092.1148-14.9763.1248-.2285.294-.3817.43-.5052.131-.1174.2248-.2026.2186-.2978-.0111-.3372-.2063-.7115-.8388-1.606-.95-1.3267-1.1118-1.5194-1.5714-1.8666Zm-2.1396 20.89c-.6004-.0433-12.8416-.0927-17.5199.352-.0099.0012-.021.0012-.0321.0012-.1087 0-.2631-.0457-.404-.1742-.1779-.1618-.3891-.504-.3891-1.2155 0-2.1335-.0593-7.8952-.0951-11.3382-.0136-1.3144-.0235-2.2644-.0235-2.399 0-1.0748.0321-1.5467.1248-1.8691.147-.4966.5139-.8178.9364-.8178.2866 0 .4225.0259.5793.0543.1038.0198.2212.042.3978.058.866.0816 1.5677-.0395 2.4547-.1939.9278-.1618 2.0828-.3632 3.8642-.399 2.4312-.0482 7.1923.0494 8.55.2125l.0432.005c.8425.0901 1.4243.1618 1.638.2.9328.1668 1.2811 1.1329 1.212 2.0162-.0606.7684-.2656 13.0713-.2335 14.004.0037.1408.0062.8623-.399 1.2588-.1668.1631-.3818.2459-.6375.2459-.0222 0-.0445 0-.0667-.0013Zm-1.5769-10.7028c-.015-.0192-.0196-.0498-.0377-.0647-.0742-.0617-.1631-.0766-.2595-.0395-.037.0148-.0877.0704-.1396.1532-.0512.087-.1317.1634-.2126.2389-.0276.026-.0466.0558-.077.08-.0915.0726-.2008.1334-.3132.1905-.041.0208-.0798.0427-.1227.061a2.3994 2.3994 0 0 1-.3593.1196 2.5098 2.5098 0 0 1-.1549.032c-.1246.0228-.2503.0397-.3753.042-.0652.0011-.1268-.007-.1902-.0118-.0884-.007-.178-.0095-.2628-.0283-.593-.1347-1.6356-.2953-3.239-.2953-1.2602 0-2.5215.1322-3.9804.2842-.425.0444-.866.0914-1.3243.1359-.2842.0247-.5621.042-.7091.042h-.1594c-.7153 0-.9685-.0186-1.2341-.5695-.0704-.147-.1643-.2113-.3051-.2113-.2002 0-.3126.1198-.3336.2323-.2866 1.58-.7202 2.7672-.7251 2.7808-.0292.1165-.029.1959-.0423.2922-.0053.037-.0129.0772-.016.1106-.0067.0811-.01.1591-.0034.2242.0082.093.029.1656.0594.2227.008.0145.0052.0416.0146.0545.014.0193.0368.0207.053.0357a.3531.3531 0 0 0 .092.0622c.0994.0483.2092.0732.317.0813.0383.0024.0754.005.11.0098.005.0013.0111.0013.016.0013.0569 0 .1372-.0334.1915-.1025.7264-.924 1.0167-.929 2.9019-.9624a78.93 78.93 0 0 0 1.5504-.037L58.755 15.2c1.5701.0185 2.136.2322 3.044.8672.1.0383.1617.0593.2013.0593.005 0 .0086-.0012.0123-.0012.0951-.0198.2273-.1199.362-.2755.2397-.2718.3051-.3126.698-.4349.0662-.0185.1102-.054.1637-.0818.0204-.0103.0435-.0193.0624-.0311a.7423.7423 0 0 0 .14-.1152c.0143-.0154.027-.0345.0404-.0513.1753-.2198.2789-.5528.4224-1.0832.0766-.2829.173-.6362.3027-1.0476.0234-.0753.0395-.163.0494-.2223l.0062-.0322a.6004.6004 0 0 0-.0654-.4157c-.01-.0185-.0184-.0364-.0303-.052Zm81.3122-.2253c-.0062 0-.0136 0-.021.0013-.0914.005-.194.0395-.2879.0976-.667.5905-1.1204.7708-1.974.7708h-.0804l-.1877-.0025a43.1298 43.1298 0 0 0-.6325-.0037c-2.5968 0-9.7075.0989-12.5451.1372-.7017.0098-1.1304.016-1.1687.016h-.0024c-.3805-.005-.4349-.0173-.792-.3755-.1185-.1186-.2668-.2496-.3853-.2496-.0075 0-.0149 0-.021.0013-.3966.0556-1.0711 1.617-1.2922 2.1297-.0198.047-.0359.0828-.0457.1063-.3447.7708-.3064 1.1365-.2138 1.3082.073.1334.1829.1643.2261.1717.1816.0346.3002-.021.4917-.205.0729-.0606.1408-.1186.2063-.1742.7412-.6251 1.0463-.8845 2.0507-.8537.0568.0013.205.0198.2446.0248.0865.803.2594 7.007-.1112 8.561-.1248.0037-1.407.0222-1.517-.0074-.2174-.0457-.4398-.1075-.7783-.3583-.1902-.1408-.2656-.1247-.3286-.1111l-.0062.0012c-.0976.0148-.1779.1396-.252.3891-.4003.9117-.5423 1.2193-.7844 1.6517-.1273.2335-.152.2866-.283.6387-.0247.1458-.0271.2224-.0296.3743-.0012.1742.0704.3422.1865.4398.0189.0157.0415.0065.0619.0177.0415.0243.0848.0346.131.0375.024.0015.0475.025.0703.0201.0692-.016.1408-.0506.2285-.0988.4868-.3607 1.4442-.8437 2.1421-.9957 1.1773-.2557 11.3703-.3632 11.4679-.3632.74.0013 1.0006.11 1.0735.4435-.0012.0087-.0605.8586.0247 1.3824v.0012c.158.5338.407.8384.735.9353.0037.001.0078.0013.0115.0023.0688.0191.1361.042.2122.042.0716 0 .1457-.0086.2236-.0259.6831-.142 1.139-.919 1.1612-1.9778l.0025-.0976q.0061-.2199-.031-.5176c-.0172-.142-.0432-.3533-.0814-.6893-.1631-1.6554-.2224-2.0507-.2446-2.2002-.0087-.063-.0112-.0778-.0124-.1273-.047-1.386-.1322-4.026-.1186-4.0915.0346-.1074.2187-.3261.5201-.614.2458-.2371.373-.4422.3595-.5768-.0321-.3089-1.863-1.3676-2.3904-1.3812-.0074-.0012-.016-.0012-.0247-.0012a.493.493 0 0 0-.2175.0494c-.5386.2322-.8968.4114-1.1587.5423-.5078.2545-.698.3496-1.2514.3657-.0593.0012-5.889.1272-6.241.1334h-.0186c-.0351 0-.0618-.0117-.0938-.0159-.0603-.0086-.1194-.0188-.1687-.0416a.4934.4934 0 0 1-.124-.0824c-.0342-.0305-.0625-.0687-.0894-.1087-.053-.0795-.096-.1759-.1242-.2977-.005-.0206-.0109-.0402-.015-.062-.0348-.1863-.0453-.4153-.0298-.6938.0099-.1989.0309-.4818.0358-.541.3225-.0149 1.7221-.0359 3.338-.0606 2.4806-.0383 5.5678-.0852 6.3473-.1322 1.1353-.0654 1.8938.0396 2.394.3262.0939.0519.1733.0752.2574.108.0081.0032.017.0074.0249.0105.0913.034.1788.0568.2599.0675a.788.788 0 0 0 .155.0082c.0286-.0019.0624.01.0898.0047.0505-.0097.0851-.0439.1307-.0612.057-.0213.113-.0441.1629-.0762.056-.036.1101-.0738.1584-.1211.018-.0178.0332-.0396.0503-.0587.2486-.2776.408-.6795.5453-1.0627.0556-.157.1087-.3052.1655-.4386.037-.0803.0976-.1828.1619-.2915.1321-.2249.2816-.4806.3211-.693.0235-.1211.0013-.2274-.0605-.2966-.0482-.0543-.1161-.084-.194-.084Zm-18.659 11.229c.0342.0205.0692.0427.1012.0595a2.103 2.103 0 0 1-.1012-.0595Zm12.4402-1.8538c.3669 0 .5942.0568.7251.1791.1631.1532.168.4052.1742.7252.0013.0877.0037.1779.0087.2742.0074.1532-.0025.5893-.005.6671-.3397.0099-7.5036.2125-9.0132.2335l.0173-1.9272 7.8767-.147a4.4354 4.4354 0 0 1 .2162-.005Zm-.189-1.6122c-.063.0013-5.7692.157-7.5086.157-.163 0-.2915-.0013-.3767-.005 0-.1371-.0062-1.396-.005-1.5875.3558-.011 8.0187-.2557 8.3992-.2557h.0136c.4064.0284.5633.2582.577.85.016.7782-.2138.8165-1.0995.8412Zm11.5481-17.9436c-.6795-.5571-.8178-.6596-1.2934-1.0068-.0377-.0408-.0722-.0489-.1094-.0811-.056-.0502-.1097-.0904-.161-.1196-.0275-.0153-.0575-.0522-.0842-.0624-.026-.0087-.047-.021-.068-.0334-.1185-.0642-.21-.1186-.6781.304l-.2557.2198q-.488.4274-.7487.4274l-6.2175.2372c-.3657 0-.4855-.0642-1.0736-.567l-.0271-.0235c-.0655-.0519-.2014-.1618-.3917-.3076-.037-.0284-.1013-.0803-.1816-.1433-.0852-.0679-.189-.1507-.3001-.2372-.094-.0432-.1829-.0667-.2484-.0667-.0975 0-.1778.0408-.31.1606l-.5597.6795-.63.8363q-.4509.551-.4237.74c.0062.0593.0519.152.1272.2607.0531.0667.1557.2347.2743.4274l.0062.0099c.0407.0852.0778.1457.1111.1989.0902.147.1507.2446.173.6757 0 .1174-.0062.4052-.021.9599l-.0643 3.1934c0 2.0865.4324 2.9377 1.4924 2.9377.2038 0 .583-.1161.7251-.2224q.4966-.3694.6226-.3768c.1063-.0074 6.0002-.095 6.3696-.095.357 0 .5917.0283.735.1741.2434.2458.2347.8438.2186 2.1557-.0049.4163-.011.887-.011 1.4466 0 1.018-.0297 5.7136-.0297 5.7605 0 .0531.016 5.3269.0988 5.7753l.0148.0815c.1433.7956.3397 1.7931 1.165 1.7931.4793 0 .7325-.1359 1.003-.5374.3497-.5151.5659-1.5583.5659-2.3144 0-.3866-.0247-.8585-.073-1.402-.1605-1.695-.389-11.0924-.389-14.9035 0-4.2372.1815-4.5782.6176-5.401.0556-.105.1137-.2124.1754-.3384.1693-.3336.2545-.5992.2348-.7301-.0173-.1162-.1532-.2879-.3805-.4855Zm-2.9958 4.6956-.0037 2.5041c-1.118.0692-7.0736.0136-7.3862.0111l-.037-2.3385 7.427-.1767Zm-7.4257-1.223a23.901 23.901 0 0 0 .021-.8437c.0062-.5498.0099-.8524.1594-.992.074-.0704.1865-.1025.3669-.1025.0284 0 .0605.0012.0938.0024.0248-.0012.6115-.0148 1.4269-.037 1.685-.047 4.3707-.1223 5.1193-.1223.0877 0 .1495 0 .1791.0024l.0223 1.9395c-5.2812.2323-7.2182.1619-7.3887.1532Zm-9.1891 6.2932c.0142.0083.03.0155.0446.023.1102.056.2362.0929.376.1092.0117.0013.0237.0035.0358.0046.0532.005.0972.0198.1556.0198.1137 0 .236-.0086.3706-.0259.8104-.1 1.0451-.6016 1.0451-2.2335l-.063-2.467c0-2.6412.0964-2.8537.6708-3.6802.241-.341.3756-.6078.3719-.7313q-.0111-.184-1.1156-1.2354l-.5237-.4521-.1396-.1322c-.2768-.2792-.3694-.3459-.493-.3582-.0284 0-.0877.011-.163.0444-.084.0704-.1643.1409-.2422.2088a13.3463 13.3463 0 0 1-.147.1272c-.0568.0507-.1013.0902-.1507.1347a29.2596 29.2596 0 0 1-.4509.399c-.3323.2557-3.9408.2903-7.207.2335h-.057c-.1296 0-.2433-.0346-.3297-.1l-.3719-.2793c-.0123-.0197-.2137-.1321-.3434-.1976-.1656-.1544-.3002-.2372-.4102-.252-.074-.016-.1482.0222-.247.1285-.262.3249-.5028.6411-.572.751l-.43.6227q-.6818.877-.6892 1.0253c-.005.0569.0123.1334.0432.2397l.0025.0037c.1285.1915.2384.3397.3261.4595.4237.5782.4398.6004.4793 2.2904.0087.3546.0173.724.0272 1.1032.1137 4.4164.2693 10.466-.8524 16.1622a39.3885 39.3885 0 0 1-.189.8981c-.0778.3447-.1087.4867-.1087.6943 0 .0563.0228.1165.026.1735a3.245 3.245 0 0 0 .085.5637 3.692 3.692 0 0 0 .1049.3606c.0668.192.1488.3804.2443.5653.0326.0631.0461.1271.0821.19.3842.6682.7598.8325 1.0365.8325a.69.69 0 0 0 .1161-.0098c.0257-.0043.0483-.0265.0736-.0335a.9046.9046 0 0 0 .2533-.1152 1.1859 1.1859 0 0 0 .1227-.0892c.0683-.058.1317-.127.1923-.2a2.036 2.036 0 0 0 .1732-.2408 2.4486 2.4486 0 0 0 .0597-.1049c.081-.147.1442-.295.1925-.4507.0062-.0198.013-.0397.0187-.0595.016-.0578.0434-.116.0542-.1726.5905-3.0612.7635-11.117.7734-15.405.2915-.0049 5.459-.095 7.1132-.147.1826.4137.3765.6605.6258.8045Zm-4.6877-4.9911c1.1291-.0173 1.4355-.0173 4.3855.042l-.021.7671c-.0037.4781-.0222.6832-.0617.9649-.0507.3978-.2817.562-.7944.562h-.0346c-.7227-.0074-6.267.021-6.5696.0235l-.0568-2.3966c.3866.031 2.7437.0445 3.1526.037Zm4.4003-1.4404c-.42.1803-7.2775.0271-7.595.0185-.0098-.0815-.0728-.6041-.0728-.9648 0-.0754.0222-.336.0407-.551.147-.3298.2459-.3496.9525-.3496.184 0 1.6887-.0173 3.1428-.0346 1.2576-.0148 2.4447-.0284 2.5707-.0284.1001 0 .1915-.0037.2718-.0074.0655-.0025.126-.005.1804-.005.336 0 .4583.1001.4929.8636l.016 1.0587Zm.1265 6.287c.027.0247.0534.0525.0816.0734-.0282-.0208-.0549-.0489-.0816-.0734Zm.3393.2064Zm-17.467-3.0143c.1643.1248.1334.289.094.4954l-.0075.0408c-.1149.6164-.525 1.6702-.8783 2.2557-.7672 1.275-1.4726 1.7382-2.3522 1.5418-.079-.0173-.247-.0766-.4595-.1508-.5003-.1754-1.3046-.4583-1.7345-.4583a.7214.7214 0 0 0-.1223.0099c-.5188.0939-.8647.4855-.9759 1.1032-.1149.6325-.3064 3.6665.0939 7.8482.1174 1.212.2557 2.8216.2557 3.6048 0 .976-.21 1.9284-.5472 2.4855-.0196.0333-.0514.0462-.073.0762a.9768.9768 0 0 1-.1978.2063.8456.8456 0 0 1-.1556.0969c-.0817.0384-.1713.0618-.268.0726-.0357.0041-.0642.0274-.1012.0274a.8207.8207 0 0 1-.0778-.0037c-1.1835-.089-1.443-2.6116-1.443-3.5764 0-.3595.0556-1.4479.1137-2.1965.152-1.9568.1754-2.3768.1754-3.2132 0-2.3805-.1062-5.223-.4052-6.0594-.1989-.5547-.6584-.8462-1.3317-.8462-.0284 0-.0568 0-.0865.0012-.6905.026-1.5182.2693-1.8839.5535a.5906.5906 0 0 0-.1359.1667c.0902 1.5022.0445 7.416-.7202 10.2288-.0293.1079-.0794.1948-.1122.2991a7.431 7.431 0 0 1-.2955.7876c-.0639.144-.1254.2902-.1973.426-.156.2936-.329.554-.5107.7958-.0882.1176-.1775.2337-.2735.343-.2072.2357-.4256.4405-.6503.6248-.1001.082-.1997.1646-.306.24-.2807.1993-.5674.3605-.8534.4977-.0607.0292-.109.0723-.1711.0998-.8846.3903-1.8815.588-2.9637.588-.1322 0-.1927-.0272-.2792-.1297-.0284-.1013-.0358-.1668-.0247-.2076.005-.0383.0297-.095.0704-.1618l.005-.005c.0716-.0358.1927-.0963.2026-.0963l.2384-.1112c1.291-.5794 2.5794-1.3836 3.2601-3.3392.8549-2.4484 1.1983-6.278.9685-10.7822-.1877-3.6925-.7683-7.4875-1.4466-9.4443l-.0024-.0062.0049-.0062 1.4478-1.6924c.031-.0321.068-.0667.1087-.0667a.0962.0962 0 0 1 .026.005h.0025c.0234 0 .0494.0123.0803.0283l.016.0074c.2422.1915.3904.3015.4472.3435l.0173.0136c.3694.2952.8277.4521 1.3268.4521.2792 0 4.1348-.0951 5.6246-.3558.53-.0926 1.0896-.2409 2.11-1.0377.2211-.173.3508-.2495.478-.1915.1273.0556.262.1853.3917.3756.7869.992 1.307 1.648 1.4812 2.0359.0473.1041.0608.1805.0848.2653.005.0176.0132.038.0173.0545.0158.0668.0244.1285.0243.1828.001.0626-.0087.1146-.0265.1581-.007.0166-.0002.0436-.0098.0583-.011.0173-.0372.0176-.0514.0317a.3573.3573 0 0 1-.1463.0902c-.1138.0377-.2425.0547-.3705.0547-.021 0-.0408 0-.0605-.0012h-.0581q-.1371 0-.908-.1545c-.0939-.0173-.9265-.1741-1.795.01-2.1878.4632-5.2367.399-6.4473.3458a2.8594 2.8594 0 0 0-.0828-.0037c-.3063 0-.3953.1557-.4385.4052-.0074.042.0407.4781.1087 1.0834.126 1.1242.3372 3.0057.467 4.829 4.178-1.0191 7.0847-.6337 8.4461-.3113 2.1063.4991 3.359-.4188 3.826-1.4453.0717-.1577.1475-.2453.2252-.2908.001-.0006.002-.0015.003-.0022.0163-.0092.032-.0302.0484-.0344.0143-.0043.0281.0096.0424.01.0104.0003.0199.0045.03.007.0249.0059.0502-.0006.0747.0176Zm-19.361 17.13c.052-.0272.103-.0413.1549-.0746.0333-.0216.0599-.0586.0923-.0822.1067-.0779.212-.1731.3159-.2814a2.9102 2.9102 0 0 0 .2346-.2791 3.5665 3.5665 0 0 0 .2054-.3115 4.4565 4.4565 0 0 0 .2275-.4398c.042-.0935.082-.1946.1216-.298a7.0463 7.0463 0 0 0 .2847-.9375c.0366-.1534.0817-.2889.1128-.454.0593-.3125-.0617-.4052-.1742-.4286a.1219.1219 0 0 0-.0296-.0037c-.1062 0-.1655.1284-.2224.2717-.3582.8302-1.186 1.0983-1.879 1.0983-.2038 0-.3953-.0223-.5608-.0618-1.2588-.2953-2.9117-2.3657-3.4726-4.3485.7054.0235 2.976.1544 3.8519.8314.5707.4423.9055.5028 1.2081.5028.0247 0 .0494 0 .073-.0012.6003-.0148.814-.3299 1.0846-.7289.0432-.0642.089-.1322.1383-.2013.0803-.1137.241-.3287.4262-.5634.4361-.5633.614-.8054.6239-1.16.0074-.2619-.0803-.3496-.1557-.3767-.019-.0074-.0442.0108-.0652.0095-.0235-.001-.046.0047-.071.0104-.1233.0252-.2544.0985-.343.2123-.1866.236-.4485.357-.8253.3805-.165.0103-.3447.0093-.5243.0087-.0906 0-.1809.0006-.2749-.0018-.7205-.0211-1.5415-.1065-2.4547-.2033-.8327-.089-1.7753-.189-2.7994-.2558l.052-2.0482c3.1637.0013 4.3644.42 4.3756.425.2804.1037.5237.0407.6806-.0309.2113-.0964.3645-.2545.4003-.3533.0025-.005.2718-.4966.661-1.0575.0086-.0111.2013-.2866.2346-.4719.0112-.063-.0136-.1384-.0667-.2014-.0506-.0605-.1149-.0963-.173-.0963-.0271 0-.0716.0099-.1198.0284-.3545.1507-.593.2125-.824.2125-.2445 0-.8956-.0396-1.6492-.0853-1.36-.0815-3.0488-.1828-3.5405-.1321-.0025-.1483-.021-1.4417.0383-2.283 1.3564-.089 2.4188-.005 3.5455.283.0395.0098.0865.021.1396.0345.226.0556.5658.1384.7375.2088l.026.0111c.1514.064.324.1137.5601.0349.0126-.0045.0258-.0104.0388-.0157.0937-.0365.2015-.103.321-.194.0142-.011.0289-.0233.0434-.0351.069-.0552.1288-.091.2078-.1681.7437-.724 1.5417-2.467 1.6739-3.1032-.0173-.115-.0828-.2187-.173-.2706-.0191-.0109-.0361-.0002-.0553-.0058-.0217-.007-.0426-.007-.0647-.0068-.0228.0007-.0487-.0157-.069-.0071-.0284.0074-.0605.032-.105.0728-.782 1.0847-1.3922 1.5245-2.252 1.6196-.3793.0383-2.0928-.1371-2.267-.1544.367-1.6332.4893-4.4485.462-5.3195.5424.052.6103.0667.829.1174.0507.0123.11.026.1853.042.609.1322.9957.2125 1.0772.2273.079.0086.1718.0062.2632-.0062.1989-.042.3273-.1742.4904-.5003.079-.152.1507-.289.2137-.4114.1594-.3051.2632-.5077.3175-.5892.4139-.6412.6041-1.244.6659-1.4738.0136-.079.0173-.1557.011-.2212-.0024-.1124-.0641-.2149-.1568-.2606-.068-.037-.1384-.0346-.2014.0062-.0543.037-.11.1-.1568.1816-.488.6411-.9871.9475-1.669 1.024-.4077.047-.8598.0581-1.3478.026-.3298-.0222-1.5504-.0865-2.7808-.1445L90.1654.4602v-.01l-.0099-.0024c-.5226-.1136-.7647-.1408-1.1748-.1297-1.4701.0383-1.7308.068-2.1483.2434l-.0074.0024.042 2.0557c-2.052.1408-2.4287.1593-4.4448.2186-.1606.0062-.9846-.0123-1.2058-.1766-.0617-.0457-.1321-.0556-.2038-.037-.0753.0222-.1359.0815-.1668.1618-.5497 1.4466-.6868 1.9333-.8462 2.7573l.0013.0877c.0024.121.0494.2335.1284.3088.0655.063.147.0964.2335.0927h.0111c.0606-.0025.084-.0025.1421-.0198.1273-.0939.1433-.1087.21-.1717l.005-.0062q.2804-.278.3767-.352c.6943-.5486 1.8654-.9093 2.551-.9278a9.3266 9.3266 0 0 1 .2805-.005c.189 0 .1989.0148.2248.0556a.3908.3908 0 0 0 .037.0494c.1879.2051.4325 4.1372.4856 5.254a45.6767 45.6767 0 0 1-1.6937.2063c-.4274.0457-.7647.0828-1.1489.1483-.1927.0346-.3656.053-.5151.053-.163-.0098-.6597-.0382-.945-.3903l-.0087-.0074c-.0356-.0331-.0678-.0418-.1014-.0602-.0073-.0043-.013-.0084-.0208-.0123-.0328-.0152-.0642-.0256-.0945-.0262-.001 0-.002.0006-.003.0006-.04-.0003-.0803-.0012-.1151.024-.4237.3014-1.2107 2.2483-1.2551 2.8253-.0142.1707.0095.2872.0508.3796.01.0239.0245.04.0377.0584.0179.024.0261.0607.0498.0771.1656.1124.4398.0062.661-.1 2.0926-1.0007 3.659-1.3145 7.2824-1.4578.0531.551.1062.6869.4546 1.1798l.0507 1.118-4.8192.2915c-.4299-.0753-.5868-.147-.8203-.2816-.21-.1273-.3335-.1903-.3978-.2063a.4114.4114 0 0 0-.1037-.0124c-.2533 0-.5868.2014-.85.525-.4434.546-.719 1.06-.7856 1.3058-.026.095-.0218.1573-.0337.237-.0073.0457-.016.0929-.0188.1324-.0038.0648-.0057.1274.0023.1793.0117.0861.0387.149.0763.1956.009.011.0068.0345.017.0439.012.0108.0355.0078.0493.0164.0448.028.095.0451.1501.0501.038.0041.0797.002.1241-.0023a1.016 1.016 0 0 0 .1627-.0335c.0419-.0111.0736-.008.1192-.0245 1.2971-.4843 6.818-.824 7.1293-.8426l.026 2.0594c-1.6048.0234-3.2812.2088-4.629.357-1.1538.1285-2.0692.2285-2.346.152-.1185-.0334-.2408-.068-.4471-.1767-.1248-.089-.236-.1408-.3015-.1408-.0061 0-.0123 0-.0173.0012-.0728.0235-.1692.142-.2507.31-.4015.9414-.5535 1.6209-.5214 2.3448.0102.1494.0651.2769.1356.3782a.433.433 0 0 0 .008.0115c.0212.0288.0367.0671.0615.0884.0162.0131.034.011.0507.0203l.0005.0001c.0381.0213.0762.0463.1156.0463.0074 0 .0148 0 .021-.0013.0506-.0061.1346-.0519.2248-.121 1.1501-.7931 3.994-1.69 7.002-1.79-.0753.4904-.3644 1.2266-.9067 2.3138-.971 1.9308-2.0013 3.018-2.9772 3.1452-.992.1272-2.126.1087-2.9908-1.0155-.0618-.0914-.1223-.1544-.1866-.194a.2604.2604 0 0 0-.2866.0137c-.0914.0691-.1247.1853-.0902.3113.1832.6674.4414 1.1854.726 1.6242.009.0142.0172.0305.0265.0445a4.461 4.461 0 0 0 .4512.5755c.007.0076.0138.0159.0209.0234.1647.1747.3297.3266.499.4555l.0027.002c.852.6472 1.7036.78 1.9625.7994.058.0049.115.0074.1717.0074.6153 0 1.1428-.2681 1.8259-.913 1.391-1.312 2.5868-6.0421 2.7857-6.8574-.1 3.3144-.1618 4.4645-.2853 5.3083l-.005.0333c-.0939.6746-.1556 1.1205-.1766 1.3355-.058.6164.1075 1.2044.4422 1.5713.04.044.0901.0634.1335.0998.0524.0444.1049.0881.163.1218.061.0352.1234.0613.1889.0834.0563.0193.1155.0291.1754.0383.0521.008.0995.0335.1533.0335.325 0 .6387-.1396.8833-.3916.0185-.019.0243-.0488.0416-.0688.034-.039.0532-.0943.0836-.138.2137-.3068.3486-.6812.3344-1.1175a37.3437 37.3437 0 0 1-.0074-.4348c-.0062-.399-.0136-.945-.0322-1.1576 0-.0086-.0778-2.3335-.0877-3.8506.0976.2693.1952.5609.2978.8697.3965 1.1966.8705 2.5855 1.7211 3.4723.0112.0117.022.024.0334.0356.364.3691.7891.656 1.3166.7838a2.0682 2.0682 0 0 0 1.3734-.149c.023-.0113.046-.021.069-.0333ZM86.7398 9.723c-.0148-.2718-.0901-1.3873-.163-2.467-.0742-1.102-.1446-2.1434-.1458-2.2175-.0087-.4238.11-.5757.4707-.6029.0654-.0074.2001-.0086.3545-.0086.1767 0 .378.0024.5374.005l.1235.0012.525-.01c.0322-.0012.0878-.0036.1594-.0061.3002-.0136.9228-.0457 1.3565-.016l.021.0815c.084.3224.0988.3805.1494 1.139.0433.6448-.037 1.5022-.1 2.1915-.0284.3014-.052.5608-.0618.7573-.026.5126.142 1.034.1791 1.1414-.3928-.053-.74-.0444-1.3132-.0259-.21.005-.452.0123-.7375.0173-.1667 0-.7758.0099-1.3552.0198Zm-5.508 4.0188h-.0027l.001-.0002.0017.0002ZM17.059 20.5158c1.3836.7425 1.3996.745 1.743.682.3633-.063.803-.3299 1.2354-.7536.5411-.5238.903-1.1872 1.3836-2.5325.0704-.1594.1075-.3039.1112-.43.0062-.1296-.0544-.2532-.1544-.3199-.0865-.0593-.1878-.0654-.2767-.0222-.0902.0408-.1421.11-.2039.2718-.5398.9487-.882 1.1946-1.6677 1.1946-.8252 0-1.3663-.047-2.1446-.1853-1.685-.2805-3.1242-.3954-4.971-.3954-2.5375 0-7.2245.4386-9.7174.8314-.2557-.0333-.2767-.0432-.5374-.1692l-.0235-.0111c-.0383-.0223-.116-.0593-.2162-.105-.0642-.031-.1383-.0655-.215-.1026-.1296-.0815-.2248-.1297-.2791-.095v.0012C.782 18.612 0 20.721 0 21.8513c0 .4286.1285.8091.3286.9672.1581.126.3434-.0642.4052-.1272a4.2906 4.2906 0 0 1 .1614-.1532c.071-.065.148-.1292.2271-.1935.3167-.2541.7592-.5516 1.3618-.848l.0068-.0033c.2813-.1381.6009-.2755.955-.4085.0818-.0306.1671-.06.252-.0896.2819-.099.5869-.1943.915-.2847.1491-.041.3023-.0801.4588-.1182.2992-.0729.618-.1404.954-.203.1817-.034.3659-.0667.5561-.0969.8106-.1273 1.7188-.2222 2.7405-.269.0973-.0046.1985-.0069.2975-.0106.3155-.0113.6347-.0212.971-.0232.063 1.0327.0617 1.4244.0605 2.073v.289c0 .64-.0742 1.533-.1656 1.9914-.1532.798-.6411 1.202-1.4528 1.202a4.64 4.64 0 0 1-.268-.01c-.0548-.0031-.1098-.0086-.1652-.014a4.023 4.023 0 0 1-.5331-.0886 3.697 3.697 0 0 1-.3012-.0866 3.4253 3.4253 0 0 1-.4275-.1731 3.273 3.273 0 0 1-.375-.2146 3.2556 3.2556 0 0 1-.321-.2439 3.3996 3.3996 0 0 1-.3817-.3852c-.0431-.0508-.0888-.0941-.1304-.149-.0852-.0581-.1494-.0977-.2087-.115a.2452.2452 0 0 0-.2039.042c-.0617.047-.0988.1236-.1.2113 0 .0136-.0013.0272-.0025.0432-.005.0457-.0099.1025.0185.1581.4645.8883.8178 1.3083 1.4343 1.9149.8833.8709 2.1841 1.4503 3.48 1.5503.0667.005.1322.0074.1976.0074.0517 0 .0954-.0212.1461-.0241.199-.0115.3918-.0403.5738-.0951.089-.0266.1704-.063.2544-.0992.1585-.0687.3102-.1495.4493-.251.083-.0603.1566-.1296.2317-.2009a2.4702 2.4702 0 0 0 .3073-.352 2.6278 2.6278 0 0 0 .188-.308 2.8846 2.8846 0 0 0 .196-.4682c.02-.0623.057-.1105.0735-.1756.236-.9376.3002-1.6726.3002-3.4244 0-.4138-.0087-1.6764-.0346-2.7437 1.6208.068 2.9093.3039 3.6283.6658ZM1.8246 5.9306c-.089-.0606-.1383-.1717-.1544-.3509v-.0012c.026-1.664.6498-3.5368 1.2144-3.643.063-.0137.1124-.0223.1569-.0223.1482 0 .2495.0988.6275.488l.3373.331c.2223.2026.2458.2125.5052.2125 1.8296-.2285 2.514-.2817 5.1848-.4484.0989-.21.1211-.315.1211-.5782 0-.3817-.0494-1.041-.1248-1.6982L9.6914.2088l.0111-.0025C10.5215.0605 11.0132 0 11.4345 0c.0741 0 .147.0024.2187.0062.341.016.7263.079 1.5837.2594l.0099.0025v.0098l-.0038 2.096c1.5751.0766 1.5788.0766 2.7648.0766.8524 0 2.1186-.1173 2.945-.273.9933-.1865 1.3306-.446 1.8087-1.391.042-.0346.0963-.0729.1358-.084.0188-.0038.0387.0128.0583.0123a.3041.3041 0 0 1 .1471.0309c.0196.0087.0403-.0003.059.0124.0877.0593.147.152.1581.247a2.678 2.678 0 0 1 0 .2447c-.0877.672-.142.808-.6436 1.6195-.3866.614-.4286.6857-.8894 1.5109-.2397.4336-.525.693-.7622.693-.21 0-.5387-.0914-1.0069-.2816-1.0673-.4324-3.7728-.6918-5.7728-.6918-3.3935 0-7.1342.6312-9.5308 1.6072-.0568.0234-.1347.0667-.2088.1075-.0926.0506-.189.1037-.2508.1223-.0939.0284-.1754.0432-.2458.0432-.0741 0-.1359-.0173-.184-.0494Zm3.9359 9.886c-.005.121.0482.2346.1396.2976.3385.2323.4632.2903.95.4818l.0062.0025.0061-.005c.7054-.5114 1.0155-.593 1.6517-.593l.5189.0446c2.0321.1667 4.4757-.0322 5.4294-.1248.0309-.0025.0482-.005.0494-.005.0099.0013.0939.0272.1989.0606.4509.1408 1.5047.4694 1.8889.4694.31 0 .3866-.0296.4817-.1902.147-.252.2928-.7153.325-1.0328.5176-5.7667.5583-5.9618 1.4577-6.9402.0457-.1322.0691-.2335.0691-.2916 0-.1-.0296-.2223-.0939-.378-.1643-.1594-.4348-.4287-.8005-.8104l-.5892-.4793c-.3904-.3323-.4818-.4015-.6202-.4015a.7676.7676 0 0 0-.0877.0062c-.0988.0234-.2409.0988-.3891.2063-.2842.1952-.5918.3644-.7005.383-.131.0246-.3125-.0062-.546-.0458a11.368 11.368 0 0 0-.2014-.0333c-1.0414-.1619-4.3064-.4361-6.8957.2446-1.3033.3446-1.795.1902-2.0297.1161l-.0149-.005c-.1544-.0481-.593-.1655-1.0686-.2865h-.0086c-.0334 0-.0529.0282-.0794.0428-.0143.0082-.0316.0114-.0428.0231-.0094.0094-.0255.0061-.0335.018-.063.094-.063.241-.0407.2904.4867 1.0661 1.1723 3.874 1.1723 6.7821 0 .1779-.0234.6016-.0494 1.092-.0185.3398-.0395.7252-.0531 1.0612Zm7.7677-5.9541c.003-.0002.0059-.0017.0089-.0017.0016 0 .0034.0015.0051.0015-.0047 0-.0094 0-.014.0002Zm1.0243-1.7188c.5078.0618.703.1791.8636.2767.168.1.2409.2249.252.4324.058 1.2094-.126 3.0587-.2249 4.052-.0358.3681-.063.6337-.0617.7177 0 .2063-.0458.3484-.1384.4213s-.1964.0494-.1989.0494c-.7338-.168-1.5738-.1927-2.3793-.1927h-.0642c-1.7629.0012-2.8722.1396-3.5356.2211-.3076.0383-.5312.0667-.693.0667-.3559 0-.4522 0-.4522-.835 0-.1582.0148-.3275.0852-.6437.068-.304.2397-.672.9648-.819.3744-.0754.7894-.1063 1.212-.1063.835 0 1.696.1223 2.3138.2644.4064.0939 1.1995.1754 1.564.0716.2594-.0729.4335-.3236.4335-.6238 0-.2249-.1025-.5362-.3446-1.039-.2187-.4546-.4843-.6893-.7005-.6053a.0499.0499 0 0 0-.0136.0074c-.2053.119-.7032.3701-1.2108.3843-.0196.0006-.0384.0043-.0579.0042a1.2907 1.2907 0 0 1-.1062-.0043c-.1236-.0111-2.2916-.1495-2.4176-.1495-.4744 0-.8462.0408-1.6554.1829-.1927-.488-.236-.6066-.2742-.9587-.0482-.6177.126-.8536.7449-1.0093 1.5948-.4027 3.627-.462 6.0396-.1717l.0556.0062Zm18.518-6.9217c-.037 0-.1025.0333-.1655.0852-.5868.3546-.971.5263-1.1736.5263-.2742 0-.9154-.105-1.8567-.3027-.268-.0543-1.7913-.2063-2.0643-.2063-1.9222 0-3.9816.457-5.123 1.1378-.2706.1593-.4608.383-.7252.8536-.0815.1693-.1174.2792-.1174.357 0 .068.0396.178.126.346l.005.0049c.341.2162.5238.3446.6115.672.7536 2.824.756 11.112.3298 14.3203-.3928 2.9537-.7832 4.1508-1.7394 5.338-.4299.5312-.9648.819-1.6838.903-1.8863.2175-3.0834-.0271-4.4052-1.9975-.084-.063-.1421-.0927-.1841-.0976-.0099-.0025-.021-.0025-.0309-.0025-.0432 0-.0902.016-.1346.0482-.0108.0074-.0103.0225-.0201.0311-.0006.0005-.0006.0014-.0013.002-.0578.0517-.109.1153-.1195.1855-.005.0569 0 .1322.0173.2175l.0013.0024c1.3873 3.018 3.0674 4.3053 5.6171 4.3053 1.538 0 3.028-1.1563 3.889-3.0192.5855-1.2601.751-2.619 1.0154-5.6456.0383-.3966.2039-.5288.4966-.6325.1841-.0655 1.4096-.3101 2.8006-.3101.2742 0 .556.0099.8376.0321.7165.0568 2.0939.2668 2.1816.6547.0754.3398-.0692 3.1206-.0704 3.1477l-.0086.1545c-.0655 1.2477-.189 3.2851.2767 4.612.116.3322.5695 1.003 1.0908 1.0487a1.571 1.571 0 0 0 .131.0062c.525 0 .8696-.3125 1.1068-.9957.2434-.688.441-2.4958.2977-5.4643-.063-1.3305-.1359-2.4016-.205-3.438-.1236-1.8482-.231-3.4442-.231-5.7445 0-5.994.1074-6.7043 1.1476-7.5974.1977-.1742.2656-.3138.247-.5189-.0345-.3953-.5793-1.2267-1.8826-2.8734-.1693-.1199-.2113-.1458-.2841-.1458Zm-7.8704 9.9446c.0198-.032.1791-.278.472-.4002.856-.3533 3.2575-.388 3.9024-.3546 1.5084.0865 2.1817.388 2.1817 1.9445 0 .8277-.0952 3.8012-.1026 4.0322-.205-.0272-2.598-.3434-4.0544-.2113-.0865.0075-.1717.0161-.2545.0235-.7956.0717-1.4256.1285-2.1014.4163l-.0543-.1075c.058-1.265.1346-3.6368.0111-5.3429Zm5.826-2.462a.5237.5237 0 0 1-.1063-.01c-.4805-.0901-3.5418-.3211-5.8988.2212-.1087-.7956-.4793-3.9766-.2384-4.4164.4892-.892 2.7227-.9574 4.0643-.9574.126 0 .2434.0012.352.0012h.0408c.0692.005.1508.0013.2446-.0024a4.4866 4.4866 0 0 1 .4806.0024c1.2638.084 1.6912.2978 1.827.9191.0396.189.0606.6202.052.8524.0012.026.2026 2.6412-.4867 3.2602-.0964.0864-.2076.1297-.3311.1297Z" fill="#000"/></svg>