<svg xmlns="http://www.w3.org/2000/svg" aria-label="NewsPicks | 経済を、もっとおもしろく。" color="var(--brand-color-default)" data-testid="NewsPicksLogo" fill="none" height="44" id="newspicks-logo" viewBox="0 0 126 44" width="125.71"><path clip-rule="evenodd" d="M77.6833 33H114.44V30.9954H77.6833V33ZM71.3447 23.6823V17.5892H72.51C75.2705 17.5892 76.6705 18.5987 76.6705 20.5894C76.6705 22.6419 75.3105 23.6823 72.6278 23.6823H71.3447ZM75.3556 15.9197C74.5931 15.7167 73.4845 15.6182 71.9671 15.6182H69.1124V33H71.3447V25.6643H72.8758C74.6967 25.6643 76.159 25.2051 77.2216 24.3001C78.2739 23.4039 78.8073 22.1671 78.8073 20.6242C78.8073 19.1824 78.3066 17.9734 77.3183 17.0315C76.7552 16.4892 76.095 16.1151 75.3556 15.9197ZM80.6213 28.1654H82.7878V15.814H80.6213V28.1654ZM11.2749 13.0046H114.44V11H11.2749V13.0046ZM94.6736 18.8755L94.9225 19.0784V16.5236L94.8473 16.4808C93.795 15.8832 92.6873 15.58 91.5559 15.58C89.4879 15.58 87.7775 16.3403 86.4738 17.84C85.4155 19.0638 84.879 20.4762 84.879 22.0396C84.879 23.7838 85.5208 25.2944 86.7876 26.5295C88.0582 27.7536 89.6143 28.3743 91.4123 28.3743C92.6065 28.3743 93.7615 28.0715 94.8456 27.4739L94.9225 27.4315V24.8344L94.6732 25.0398C94.3775 25.2827 94.0908 25.4949 93.8199 25.6693C93.5556 25.8396 93.2964 25.9767 93.0441 26.0795C92.6065 26.2783 92.0657 26.3785 91.436 26.3785C90.2156 26.3785 89.1698 25.9545 88.329 25.1191C87.4878 24.2833 87.0609 23.2416 87.0609 22.0237C87.0609 20.7903 87.4878 19.7327 88.3307 18.8801C89.1659 18.025 90.2083 17.5913 91.4278 17.5913C92.5377 17.5913 93.6295 18.0237 94.6736 18.8755ZM110.219 20.2175C109.39 19.8853 108.969 19.4533 108.969 18.9342C108.969 18.55 109.119 18.2401 109.428 17.9851C109.74 17.7243 110.14 17.5913 110.617 17.5913C111.007 17.5913 111.327 17.6677 111.572 17.8216C111.804 17.9528 112.057 18.2493 112.325 18.7031L112.402 18.8327L114.174 17.8081L114.1 17.6819C113.275 16.2871 112.108 15.58 110.633 15.58C109.544 15.58 108.62 15.9017 107.886 16.5366C107.146 17.1719 106.771 17.9734 106.771 18.9182C106.771 20.3194 107.655 21.3942 109.399 22.1139L110.589 22.5961C110.889 22.7228 111.151 22.8566 111.366 22.9941C111.576 23.1283 111.75 23.2734 111.881 23.4257C112.009 23.5745 112.104 23.7398 112.165 23.9159C112.226 24.0946 112.257 24.2955 112.257 24.5131C112.257 25.06 112.084 25.4982 111.725 25.8522C111.368 26.2065 110.929 26.3785 110.386 26.3785C109.695 26.3785 109.185 26.1432 108.826 25.6555C108.631 25.4081 108.49 24.9392 108.408 24.2615L108.389 24.0992L106.201 24.5697L106.221 24.7064C106.395 25.8589 106.844 26.7677 107.556 27.4076C108.279 28.0489 109.207 28.3743 110.313 28.3743C111.48 28.3743 112.47 27.9931 113.258 27.2399C114.042 26.4909 114.44 25.5314 114.44 24.3881C114.44 23.5305 114.194 22.7945 113.711 22.2011C113.232 21.614 112.472 21.1116 111.45 20.7085L110.219 20.2175ZM96.8457 15.814V28.1558H99.0117V23.0835L99.2322 22.8687L103.618 28.1558H106.508L100.777 21.4244L106.519 15.814H103.603L99.0117 20.4049V15.814H96.8457ZM24.645 28.2539L12.2726 15.624H11.415V33H13.6885V20.1332L26.3262 33H26.9198V15.6182H24.645V28.2539ZM29.3575 33H63.6155V30.9954H29.3575V33ZM59.393 20.2191C58.5634 19.887 58.1426 19.455 58.1426 18.9354C58.1426 18.5513 58.2922 18.2409 58.6021 17.9864C58.9138 17.7251 59.3139 17.5922 59.7919 17.5922C60.1814 17.5922 60.5012 17.6685 60.7471 17.8224C60.9788 17.9537 61.2319 18.2506 61.5002 18.7043L61.5771 18.8344L63.3498 17.8094L63.2755 17.6827C62.4497 16.2871 61.2827 15.58 59.8074 15.58C58.7177 15.58 57.7931 15.9021 57.0589 16.537C56.3187 17.1728 55.9439 17.9742 55.9439 18.9199C55.9439 20.3215 56.8281 21.3972 58.5729 22.1164L59.7636 22.5995C60.0636 22.7257 60.325 22.8595 60.5407 22.9971C60.7509 23.1317 60.9246 23.2768 61.0557 23.4294C61.1834 23.5783 61.2792 23.7431 61.3398 23.9197C61.4009 24.0979 61.4323 24.2992 61.4323 24.5165C61.4323 25.0642 61.2582 25.5024 60.8992 25.8568C60.5425 26.2112 60.104 26.3835 59.5598 26.3835C58.869 26.3835 58.3597 26.1478 57.999 25.6601C57.8043 25.4122 57.6637 24.9434 57.5816 24.2653L57.5619 24.103L55.3726 24.5735L55.3933 24.7102C55.5678 25.8631 56.017 26.7719 56.7292 27.4127C57.4531 28.0543 58.3812 28.3797 59.4876 28.3797C60.6542 28.3797 61.6455 27.9981 62.4338 27.2449C63.2183 26.4955 63.6155 25.536 63.6155 24.3919C63.6155 23.5339 63.37 22.7974 62.8864 22.204C62.4076 21.6161 61.6472 21.1141 60.625 20.7106L59.393 20.2191ZM46.5723 20.6649L49.3607 28.1613H50.1817L55.4117 16.0191L55.5007 15.814H53.1469L49.8404 23.6085L46.9398 15.814H46.283L43.2529 23.6052L40.1799 15.9075L40.1417 15.814H37.7908L42.8429 28.1613H43.6669L46.5723 20.6649ZM36.647 17.8186V15.814H29.5277V28.1613H36.647V26.1566H31.6946V22.4242H36.5034V20.4196H31.6946V17.8186H36.647Z" fill="currentColor" fill-rule="evenodd"></path></svg>